<?xml version="1.0" encoding="utf-8"?>
<svg width="18px" height="14px" viewBox="0 0 18 14" version="1.1" xmlns:xlink="http://www.w3.org/1999/xlink" xmlns="http://www.w3.org/2000/svg">
  <desc>Created with Lunacy</desc>
  <path d="M4.59831 7.92859C4.42475 8.10215 4.15532 8.12144 3.96045 7.98644L3.89121 7.92859L-1.90735e-06 4.03738L3.8905 0.146877C4.08576 -0.0483847 4.40234 -0.0483847 4.59761 0.146878C4.77117 0.320444 4.79046 0.589868 4.65546 0.784736L4.59761 0.853984L1.91446 3.53809L9.90304 3.53809C10.1792 3.53809 10.403 3.76194 10.403 4.03809C10.403 4.28355 10.2262 4.48769 9.99291 4.53003L9.90304 4.53809L1.91528 4.53809L4.59831 7.22148C4.77188 7.39505 4.79117 7.66447 4.65617 7.85934L4.59831 7.92859ZM13.1508 5.17762C12.9559 5.04262 12.6865 5.06191 12.5129 5.23548L12.4551 5.30472C12.3201 5.49959 12.3394 5.76902 12.5129 5.94258L15.1954 8.62598L7.20822 8.62598L7.11835 8.63403C6.8851 8.67637 6.70822 8.88052 6.70822 9.12598C6.70822 9.40212 6.93208 9.62598 7.20822 9.62598L15.1967 9.62598L12.5136 12.3101L12.4558 12.3793C12.3208 12.5742 12.3401 12.8436 12.5136 13.0172C12.7089 13.2124 13.0255 13.2124 13.2208 13.0172L17.1113 9.12668L13.22 5.23548L13.1508 5.17762Z" id="Combined-Shape" fill="#171E36" fill-rule="evenodd" stroke="none" />
</svg>