<svg width="24" height="24" xmlns="http://www.w3.org/2000/svg">
  <title>Curve of a link</title>
  <desc>Visual World</desc>
  <path
    d="M2.87 8.573l.795-.208c4.941-1.243 8.083-1.167 9.472.353.894.978.789 2.39.011 4.636l-.153.43-.536 1.425-.223.614-.18.52-.095.3-.077.263c-.012.041-.022.081-.032.12l-.051.214a3.55 3.55 0 00-.02.096l-.025.17c-.029.262.009.414.103.503.324.31 1.075.477 2.233.491l.454-.002.491-.016.53-.032c.182-.013.371-.028.566-.046l.605-.06.641-.077.678-.092.715-.107.752-.123.39-.067a.5.5 0 11.172.985L19.28 19l-.77.121-.732.104c-.238.032-.47.062-.694.088l-.658.072c-2.77.272-4.497.07-5.256-.652-.487-.464-.597-.9-.297-1.982l.097-.328.12-.366.142-.408.256-.698.569-1.51.055-.152c.064-.178.123-.35.178-.517l.15-.48c.431-1.462.433-2.381-.04-2.9-1.11-1.214-4.219-1.214-9.269.146a.5.5 0 01-.26-.965z"
    fill="#171E36" />
</svg>