<svg width="48" height="21" xmlns="http://www.w3.org/2000/svg">
  <title>Tight curve link</title>
  <desc>Visual World</desc>
  <path
    d="M.87 2.017l1.217-.222 1.187-.208 1.157-.194 1.129-.18.553-.084L7.2.969 7.73.897 8.772.758 9.784.635c.167-.02.332-.038.496-.056l.97-.102.94-.088.911-.074c.3-.022.593-.042.883-.059l.854-.045.825-.031a41.51 41.51 0 012.304-.007l.71.026C20.418.282 21.891.5 23.1.853c4.594 1.343 5.57 4.723 2.91 9.4l-.148.256c-2.243 3.795-1.836 5.781 1.122 6.725 1.103.352 2.53.552 4.28.597l.672.01c.228 0 .462 0 .701-.005l.731-.019.377-.015.777-.04.806-.056c.274-.02.553-.044.837-.07l.866-.084.444-.048.911-.106.467-.059.956-.128.489-.07 1-.15.511-.08 1.045-.173 1.074-.187 1.104-.202 1.134-.216.578-.114a1 1 0 11.39 1.962l-.597.117-1.171.224-1.141.208-1.111.193-1.082.178-1.051.162-1.022.147-.992.132-.484.06-.948.108-.918.094a60.5 60.5 0 01-1.321.11l-.844.055-.814.04-.785.023c-2.697.055-4.853-.174-6.477-.692-4.275-1.364-5.039-4.736-2.387-9.389l.151-.26c2.23-3.773 1.703-5.752-1.601-6.718-1.24-.363-2.838-.565-4.79-.606l-.702-.008-.733.006-.762.019-.79.033-.407.02-.835.054-.864.066a72.06 72.06 0 00-.443.038l-.908.087-.464.049-.952.107-.98.12-.5.065-1.025.141c-.346.05-.697.101-1.052.155l-1.082.168-1.11.182-1.14.195-1.167.21c-.198.035-.396.072-.595.11A1 1 0 11.87 2.016z"
    fill="#171E36" />
</svg>