<svg width="152" height="2" xmlns="http://www.w3.org/2000/svg">
  <title>Tight dashed style link</title>
  <desc>Visual World</desc>
  <path
    d="M7 0a1 1 0 010 2H1a1 1 0 010-2h6zm12 0a1 1 0 010 2h-6a1 1 0 010-2h6zm12 0a1 1 0 010 2h-6a1 1 0 010-2h6zm12 0a1 1 0 010 2h-6a1 1 0 010-2h6zm12 0a1 1 0 010 2h-6a1 1 0 010-2h6zm12 0a1 1 0 010 2h-6a1 1 0 010-2h6zm12 0a1 1 0 010 2h-6a1 1 0 010-2h6zm12 0a1 1 0 110 2h-6a1 1 0 110-2h6zm12 0a1 1 0 110 2h-6a1 1 0 110-2h6zm12 0a1 1 0 110 2h-6a1 1 0 110-2h6zm12 0a1 1 0 110 2h-6a1 1 0 110-2h6zm12 0a1 1 0 110 2h-6a1 1 0 110-2h6zm12 0a1 1 0 110 2h-6a1 1 0 110-2h6z"
    fill="#171E36" fill-rule="evenodd" />
</svg>