<svg width="150" height="2" xmlns="http://www.w3.org/2000/svg">
  <title>Dotted style link</title>
  <desc>Visual World</desc>
  <path
    d="M1 0a1 1 0 110 2 1 1 0 010-2zm64 0a1 1 0 110 2 1 1 0 010-2zM33 0a1 1 0 110 2 1 1 0 010-2zm64 0a1 1 0 110 2 1 1 0 010-2zM17 0a1 1 0 110 2 1 1 0 010-2zm64 0a1 1 0 110 2 1 1 0 010-2zM49 0a1 1 0 110 2 1 1 0 010-2zm64 0a1 1 0 110 2 1 1 0 010-2zM5 0a1 1 0 110 2 1 1 0 010-2zm64 0a1 1 0 110 2 1 1 0 010-2zM37 0a1 1 0 110 2 1 1 0 010-2zm64 0a1 1 0 110 2 1 1 0 010-2zM21 0a1 1 0 110 2 1 1 0 010-2zm64 0a1 1 0 110 2 1 1 0 010-2zM53 0a1 1 0 110 2 1 1 0 010-2zm64 0a1 1 0 110 2 1 1 0 010-2zM9 0a1 1 0 110 2 1 1 0 010-2zm64 0a1 1 0 110 2 1 1 0 010-2zM41 0a1 1 0 110 2 1 1 0 010-2zm64 0a1 1 0 110 2 1 1 0 010-2zM25 0a1 1 0 110 2 1 1 0 010-2zm64 0a1 1 0 110 2 1 1 0 010-2zM57 0a1 1 0 110 2 1 1 0 010-2zm64 0a1 1 0 110 2 1 1 0 010-2zM13 0a1 1 0 110 2 1 1 0 010-2zm64 0a1 1 0 110 2 1 1 0 010-2zM45 0a1 1 0 110 2 1 1 0 010-2zm64 0a1 1 0 110 2 1 1 0 010-2zM29 0a1 1 0 110 2 1 1 0 010-2zm64 0a1 1 0 110 2 1 1 0 010-2zM61 0a1 1 0 110 2 1 1 0 010-2zm64 0a1 1 0 110 2 1 1 0 010-2zm4 0a1 1 0 110 2 1 1 0 010-2zm4 0a1 1 0 110 2 1 1 0 010-2zm4 0a1 1 0 110 2 1 1 0 010-2zm4 0a1 1 0 110 2 1 1 0 010-2zm4 0a1 1 0 110 2 1 1 0 010-2zm4 0a1 1 0 110 2 1 1 0 010-2z"
    fill="#171E36" />
</svg>