<svg xmlns="http://www.w3.org/2000/svg" viewBox="0 0 405.37 96.84">
  <title>Full logo of Visual World</title>
  <desc>Visual World</desc>
  <defs>
    <style>
      .vw-1 {
        fill: #e3a51a
      }
      .vw-2 {
        fill: #1e2135
      }
      .vw-3 {
        fill: #e7af19
      }
    </style>
  </defs>
  <g>
    <path class="vw-1"
      d="M135.71 39.81c.59 0 .71.18.65.84l-6.88 25c-1.62 6-1.74 6.89-7 6.89-4.79 0-5-.84-6.71-6.89l-7.06-25c-.12-.66 0-.84.6-.84h3.17c.42 0 .48.18.72.84l6.64 23.88c1 3.48 1.2 3.89 2.64 3.89 1.73 0 2-.41 2.93-3.89l6.46-23.88c.18-.66.3-.84.72-.84zM146.42 39.81a.72.72 0 01.78.78v30.83a.7.7 0 01-.78.78h-2.81c-.54 0-.78-.24-.78-.78V40.59a.7.7 0 01.78-.78zM175.39 39.93a.74.74 0 01.72.78v1.86c0 .53-.24.77-.78.77h-10.89c-2.7 0-5.21.84-5.21 3.59v1c0 2 .78 3.53 4 4.85l8.44 3.41c5.21 2.1 5.69 4.91 5.69 8v.72c0 6.35-3.48 7.61-11.74 7.61-4.31 0-9.45-.36-10.41-.48-.6-.06-.72-.36-.72-.72v-1.88c0-.54.24-.78.72-.78h10.53c5.57 0 7.31-.71 7.31-3.77v-.78c0-2-.72-3.29-3.59-4.48l-9-3.6c-4.55-1.85-5.57-5-5.57-8.2v-1.31c0-6.47 5.92-7 11.19-7a88.26 88.26 0 019.31.41zM209.69 39.81a.7.7 0 01.78.78v30.29c0 .6-.24.66-.78.78a68.21 68.21 0 01-12.09.84c-9.88 0-13.29-1.32-13.29-13.65V40.59a.77.77 0 01.84-.78h2.75a.72.72 0 01.78.78v18.2c0 9.34 2.22 9.87 8.2 9.87h9.22V40.59a.72.72 0 01.78-.78zM237.71 51.34v-1.89c0-4.49-3-6.11-8.86-6.11h-8.09c-.59 0-.77-.18-.77-.77v-1.68c0-.6.18-.72.72-.84a54.34 54.34 0 018.14-.54c8.26 0 13.16 2.34 13.16 9.28v20.95a1.36 1.36 0 01-1.07 1.56c-1.86.72-7.43 1.2-12.75 1.2-7.84 0-11-2-11-9.46 0-6.59 3.36-8.86 10-8.86H235V58h-7.72c-3.89 0-5.69 1.32-5.69 5.09 0 4.43 2 5.68 7.61 5.68a41.86 41.86 0 008.56-.77V51.34zM254.35 27.42a.68.68 0 01.77.72v43.28a.69.69 0 01-.77.78h-2.82a.7.7 0 01-.78-.78V28.14c0-.48.3-.72.78-.72z" />
    <path class="vw-2"
      d="M282.55 41H286c.42 0 .6.18.78 1l5.76 23c.71 3.18.89 3.41 2.09 3.41 1 0 1.38-.35 2-3.41l5.2-24.36c.12-.66.24-.84.66-.84h3.06c.65 0 .77.18.65.84l-5.32 24.66c-1.44 6.41-2.16 7.19-6.35 7.19-4.43 0-4.73-.78-6.23-7.19m-5.52-13.06l-3.09 13.06c-1.5 6.41-1.8 7.19-6.23 7.19-4.25 0-4.91-.78-6.35-7.19l-5.32-24.66c-.12-.66 0-.84.66-.84h3.05c.42 0 .54.18.66.84L271.4 65c.66 3.06 1.08 3.41 2 3.41 1.2 0 1.38-.23 2.1-3.41l5.27-21.2M338.09 56c0 13.23-2.27 16.53-13.35 16.53S311.45 69.2 311.45 56s2.28-16.46 13.29-16.46S338.09 42.8 338.09 56zm-22.33 0c0 10.12 1.2 12.69 9 12.69s9-2.57 9-12.69-1.2-12.63-9-12.63-9 2.49-9 12.63zM360.78 40.05c.48.18.72.36.72.84v1.74a.63.63 0 01-.78.71h-5.21c-3.53 0-5.27.54-5.27 3.42v24.66c0 .54-.24.78-.78.78h-2.81a.7.7 0 01-.78-.78V45.86c0-6.29 6.05-6.35 8.68-6.35a33 33 0 016.23.54zM370.53 27.42c.48 0 .78.24.78.72v43.28a.7.7 0 01-.78.78h-2.81a.7.7 0 01-.78-.78V28.14c0-.48.3-.72.78-.72zM401.06 39.87V28.2c0-.48.24-.78.72-.78h2.81a.7.7 0 01.78.78v42.44c0 .6-.24.84-.84.9a67.49 67.49 0 01-12.15 1c-11.07 0-13.17-3.24-13.17-16.53s2.1-16.46 13.59-16.46c2.3 0 3.75.06 5.49.17v3.66h-5.49c-8.26 0-9.22 2.46-9.22 12.57s1 12.75 8.8 12.75a68.24 68.24 0 008.68-.59V43.34" />
    <path class="vw-3"
      d="M26.78 69.36a6.64 6.64 0 111-.08 6.15 6.15 0 01-1 .08zm0-10.3a3.77 3.77 0 00-.58 0 3.7 3.7 0 00-3 3A3.65 3.65 0 1026.8 59zM60.28 46.42a12.81 12.81 0 01-8.36 5 12.49 12.49 0 11-3.87-24.68 14.16 14.16 0 012.05-.16A13.13 13.13 0 0153 27a8.54 8.54 0 012-2.56 16 16 0 00-7.41-.58 15.47 15.47 0 002.31 30.8 16.4 16.4 0 002.5-.2 15.8 15.8 0 0010.3-6.2 15.2 15.2 0 002.92-11.07 8.45 8.45 0 01-2.88 1.38 12.27 12.27 0 01-2.46 7.85z" />
    <circle class="vw-3" cx="50.44" cy="73.45" r="9.48" />
    <path class="vw-2"
      d="M57.19 9.79c-1.55 1-3.16 2.24-4.79 3.58 19.62 2.8 28.71 15 28.71 38.05 0 26.53-12 38.81-38.34 38.81-16.4 0-27.25-4.73-33.13-14.66a56.86 56.86 0 00-1.54 5.9c6.88 8.83 18.28 13 34.66 13 29.31 0 42.65-13.57 42.65-43.1 0-24.1-8.93-37.5-28.22-41.58z" />
    <path class="vw-2"
      d="M71.39 1.38c-5-3.51-13.35 0-22.5 7.28-2-.15-4-.23-6.13-.23C13.35 8.43 0 21.89 0 51.42c0 8.92 1.25 16.36 3.76 22.44C.35 84.89.85 92.35 5.25 95.44a8 8 0 004.75 1.4c3.92 0 8.92-2.14 14.81-6.37l-2.44-2C15.46 93.31 9.81 95 7 93c-3.16-2.23-3.22-9.28-.15-18.88 3.32-10.41 9.84-22.82 18.36-34.94C43.93 12.51 63.31-.63 69.66 3.83c2.64 1.85 3.11 7.06 1.43 14.31L73.72 20c2.45-9.41 1.66-15.82-2.33-18.62zM22.73 37.45A151.54 151.54 0 006.16 67.13a59.78 59.78 0 01-1.85-15.71c0-26.66 12-38.7 38.46-38.7h1.35a155.44 155.44 0 00-21.39 24.73z" />
    <path class="vw-3"
      d="M60.54 38.8a8.37 8.37 0 01-4.9-1.56 8.14 8.14 0 01-3.35-5.41 8.43 8.43 0 0113.26-8 8.1 8.1 0 013.35 5.4 8.35 8.35 0 01-7 9.48 8.73 8.73 0 01-1.36.09zm.11-13.55a5.1 5.1 0 00-.87.07 5.35 5.35 0 00-4.53 6.05 5.19 5.19 0 002.13 3.42 5.45 5.45 0 004 1 5.36 5.36 0 004.52-6.05 5.15 5.15 0 00-2.13-3.43 5.45 5.45 0 00-3.12-1.06z" />
  </g>
</svg>