<svg xmlns="http://www.w3.org/2000/svg" viewBox="0 0 85.41 96.84">
  <title>Monochrome full logo of Visual World</title>
  <desc>Visual World</desc>
  <defs>
    <style>
      .vw-1 {
        fill: #171E36
      }
    </style>
  </defs>
  <g>
    <path class="vw-1"
      d="M26.78 69.36a6.64 6.64 0 111-.08 6.15 6.15 0 01-1 .08zm0-10.3a3.77 3.77 0 00-.58 0 3.7 3.7 0 00-3 3A3.65 3.65 0 1026.8 59zM60.28 46.42a12.81 12.81 0 01-8.36 5 12.49 12.49 0 11-3.87-24.68 14.16 14.16 0 012.05-.16A13.13 13.13 0 0153 27a8.54 8.54 0 012-2.56 16 16 0 00-7.41-.58 15.47 15.47 0 002.31 30.8 16.4 16.4 0 002.5-.2 15.8 15.8 0 0010.3-6.2 15.2 15.2 0 002.92-11.07 8.45 8.45 0 01-2.88 1.38 12.27 12.27 0 01-2.46 7.85z" />
    <circle class="vw-1" cx="50.44" cy="73.45" r="9.48" />
    <path class="vw-1"
      d="M57.19 9.79c-1.55 1-3.16 2.24-4.79 3.58 19.62 2.8 28.71 15 28.71 38.05 0 26.53-12 38.81-38.34 38.81-16.4 0-27.25-4.73-33.13-14.66a56.86 56.86 0 00-1.54 5.9c6.88 8.83 18.28 13 34.66 13 29.31 0 42.65-13.57 42.65-43.1 0-24.1-8.93-37.5-28.22-41.58z" />
    <path class="vw-1"
      d="M71.39 1.38c-5-3.51-13.35 0-22.5 7.28-2-.15-4-.23-6.13-.23C13.35 8.43 0 21.89 0 51.42c0 8.92 1.25 16.36 3.76 22.44C.35 84.89.85 92.35 5.25 95.44a8 8 0 004.75 1.4c3.92 0 8.92-2.14 14.81-6.37l-2.44-2C15.46 93.31 9.81 95 7 93c-3.16-2.23-3.22-9.28-.15-18.88 3.32-10.41 9.84-22.82 18.36-34.94C43.93 12.51 63.31-.63 69.66 3.83c2.64 1.85 3.11 7.06 1.43 14.31L73.72 20c2.45-9.41 1.66-15.82-2.33-18.62zM22.73 37.45A151.54 151.54 0 006.16 67.13a59.78 59.78 0 01-1.85-15.71c0-26.66 12-38.7 38.46-38.7h1.35a155.44 155.44 0 00-21.39 24.73z" />
    <path class="vw-1"
      d="M60.54 38.8a8.37 8.37 0 01-4.9-1.56 8.14 8.14 0 01-3.35-5.41 8.43 8.43 0 0113.26-8 8.1 8.1 0 013.35 5.4 8.35 8.35 0 01-7 9.48 8.73 8.73 0 01-1.36.09zm.11-13.55a5.1 5.1 0 00-.87.07 5.35 5.35 0 00-4.53 6.05 5.19 5.19 0 002.13 3.42 5.45 5.45 0 004 1 5.36 5.36 0 004.52-6.05 5.15 5.15 0 00-2.13-3.43 5.45 5.45 0 00-3.12-1.06z" />
  </g>
</svg>