<svg width="24" height="24" viewBox="0 0 24 24" fill="none" xmlns="http://www.w3.org/2000/svg">
  <title>Background</title>
  <desc>Visual World</desc>
  <g>
    <path fill-rule="evenodd" clip-rule="evenodd" d="M17.9878 5.2502C17.9878 4.80837 18.346 4.4502 18.7878 4.4502H21.7492C22.3592 4.4502 22.9442 4.69252 23.3756 5.12385C23.8069 5.55518 24.0492 6.1402 24.0492 6.7502V21.7502C24.0492 22.3602 23.8069 22.9452 23.3756 23.3765C22.9442 23.8079 22.3592 24.0502 21.7492 24.0502H6.74922C6.13922 24.0502 5.55421 23.8079 5.12287 23.3765C4.69154 22.9452 4.44922 22.3602 4.44922 21.7502V18.8397C4.44922 18.3979 4.80739 18.0397 5.24922 18.0397C5.69105 18.0397 6.04922 18.3979 6.04922 18.8397V21.7502C6.04922 21.9358 6.12297 22.1139 6.25424 22.2452C6.38552 22.3764 6.56357 22.4502 6.74922 22.4502H21.7492C21.9349 22.4502 22.1129 22.3764 22.2442 22.2452C22.3755 22.1139 22.4492 21.9358 22.4492 21.7502V6.7502C22.4492 6.56454 22.3755 6.3865 22.2442 6.25522C22.1129 6.12394 21.9349 6.0502 21.7492 6.0502H18.7878C18.346 6.0502 17.9878 5.69202 17.9878 5.2502Z" fill="#171E36"/>
    <path fill-rule="evenodd" clip-rule="evenodd" d="M18.1457 9.64664L22.1457 5.64664L22.8528 6.35375L18.8528 10.3537L18.1457 9.64664ZM18.6457 13.1466L22.6457 9.14664L23.3528 9.85375L19.3528 13.8537L18.6457 13.1466ZM22.6457 13.1466L23.3528 13.8537L13.8528 23.3538L13.1457 22.6466L22.6457 13.1466ZM16.6457 23.1466L22.6457 17.1466L23.3528 17.8538L17.3528 23.8538L16.6457 23.1466ZM5.64567 22.1466L9.64567 18.1466L10.3528 18.8538L6.35277 22.8538L5.64567 22.1466ZM9.14567 22.6466L13.6457 18.1466L14.3528 18.8538L9.85277 23.3538L9.14567 22.6466Z" fill="#171E36"/>
    <path fill-rule="evenodd" clip-rule="evenodd" d="M2.24922 1.5502C1.86262 1.5502 1.54922 1.8636 1.54922 2.2502V17.2502C1.54922 17.6368 1.86262 17.9502 2.24922 17.9502H17.2492C17.6358 17.9502 17.9492 17.6368 17.9492 17.2502V2.2502C17.9492 1.8636 17.6358 1.5502 17.2492 1.5502H2.24922ZM-0.0507812 2.2502C-0.0507812 0.97994 0.978964 -0.0498047 2.24922 -0.0498047H17.2492C18.5195 -0.0498047 19.5492 0.97994 19.5492 2.2502V17.2502C19.5492 18.5204 18.5195 19.5502 17.2492 19.5502H2.24922C0.978964 19.5502 -0.0507812 18.5204 -0.0507812 17.2502V2.2502Z" fill="#171E36"/>
  </g>
</svg>

