<svg width="24" height="24" viewBox="0 0 24 24" fill="none" xmlns="http://www.w3.org/2000/svg">
  <title>Component library</title>
  <desc>Visual World</desc>
  <g>
    <path fill-rule="evenodd" clip-rule="evenodd" d="M5.00008 3.24854C4.6847 3.24854 4.40302 3.44584 4.29524 3.74223L0.295239 14.7422L0.275802 14.7957L0.264648 14.8514L0.249536 14.927C0.0916074 15.1664 0.00388783 15.4478 8.39233e-05 15.7387V16.1743L-0.235352 17.3514L8.39233e-05 17.3985V20.7485C8.39233e-05 21.3453 0.237137 21.9176 0.659094 22.3395C1.08105 22.7615 1.65335 22.9985 2.25008 22.9985H21.7501C22.3468 22.9985 22.9191 22.7615 23.3411 22.3395C23.763 21.9176 24.0001 21.3453 24.0001 20.7485L24.0001 17.9152L24.2399 17.8752L24.0001 16.4368L24.0001 15.7485L24 15.7387C23.9962 15.446 23.9075 15.1631 23.7478 14.9227L23.7399 14.8752L23.7285 14.8071L23.7049 14.7422L19.7049 3.74223C19.5972 3.44584 19.3155 3.24854 19.0001 3.24854H5.00008ZM21.9293 14.2485L18.4748 4.74854H5.5254L2.07086 14.2485H9.00008C9.4143 14.2485 9.75008 14.5843 9.75008 14.9985C9.75008 15.5953 9.98714 16.1676 10.4091 16.5895C10.831 17.0115 11.4033 17.2485 12.0001 17.2485C12.5968 17.2485 13.1691 17.0115 13.5911 16.5895C14.013 16.1676 14.2501 15.5953 14.2501 14.9985C14.2501 14.5843 14.5859 14.2485 15.0001 14.2485H21.9293ZM1.50008 16.3228L1.61494 15.7485H8.32583C8.47181 16.4636 8.82465 17.1264 9.34843 17.6502C10.0517 18.3534 11.0055 18.7485 12.0001 18.7485C12.9946 18.7485 13.9485 18.3534 14.6517 17.6502C15.1755 17.1264 15.5284 16.4636 15.6743 15.7485H22.3647L22.5001 16.5606V20.7485C22.5001 20.9474 22.4211 21.1382 22.2804 21.2789C22.1398 21.4195 21.949 21.4985 21.7501 21.4985H2.25008C2.05117 21.4985 1.86041 21.4195 1.71975 21.2789C1.5791 21.1382 1.50008 20.9474 1.50008 20.7485V16.3228Z" fill="#171E36"/>
  </g>
</svg>
