<svg width="24" height="24" xmlns="http://www.w3.org/2000/svg">
  <title>Component HTML definition</title>
  <desc>Visual World</desc>
    <g fill="none">
        <path d="M0 0h24v24H0z" />
        <path
            d="M21.5 2.5A2.5 2.5 0 0124 5v14a2.5 2.5 0 01-2.5 2.5h-19A2.5 2.5 0 010 19V5a2.5 2.5 0 012.5-2.5zm1.5 6H1V19a1.5 1.5 0 001.356 1.493l.144.007h19A1.5 1.5 0 0023 19V8.5zm-9.276 3.053a.5.5 0 01.256.587l-.033.084-3 6a.5.5 0 01-.927-.364l.033-.084 3-6a.5.5 0 01.67-.223zm2.31.036l.07.057 3 3a.5.5 0 01.057.638l-.057.07-3 3a.5.5 0 01-.765-.638l.057-.07L18.043 15l-2.647-2.646a.5.5 0 01-.057-.638l.057-.07a.5.5 0 01.638-.057zm-7.43.057a.5.5 0 01.057.638l-.057.07L5.957 15l2.647 2.646a.5.5 0 01.057.638l-.057.07a.5.5 0 01-.638.057l-.07-.057-3-3a.5.5 0 01-.057-.638l.057-.07 3-3a.5.5 0 01.708 0zM21.5 3.5h-19A1.5 1.5 0 001 5v2.5h22V5a1.5 1.5 0 00-1.356-1.493L21.5 3.5zM4 4.75l.102.007a.75.75 0 11-.204 0L4 4.75zm3 0l.102.007a.75.75 0 11-.204 0L7 4.75zm3 0l.102.007a.75.75 0 11-.204 0L10 4.75z"
            fill="#171E36" />
    </g>
</svg>