<svg width="24" height="24" xmlns="http://www.w3.org/2000/svg">
  <title>Library of components</title>
  <desc>Visual World</desc>
  <g fill="none">
    <path d="M0 0h24v24H0z" />
    <path
      d="M11.4.125a1.5 1.5 0 011.2 0L23.1 4.69c.547.239.9.779.9 1.375v11.7a1.5 1.5 0 01-.88 1.367l-10.013 4.552a1.5 1.5 0 01-1.2.02L.924 19.128A1.5 1.5 0 010 17.743V6.065A1.5 1.5 0 01.9 4.69zM22.99 5.97L12.5 10.245v12.574a.5.5 0 00.115-.017l.078-.028 10.014-4.553a.5.5 0 00.293-.456v-11.7a.502.502 0 00-.01-.095zm-21.988.07L1 6.065v11.678a.5.5 0 00.307.462L11.5 22.45V10.248L1.002 6.04zM12.2 1.042a.5.5 0 00-.4 0L1.928 5.333l10.069 4.036 9.99-4.071z"
      fill="#fff" />
  </g>
</svg>