<svg width="24" height="23" xmlns="http://www.w3.org/2000/svg">
  <title>Component edition</title>
  <desc>Visual World</desc>
  <path
    d="M12.012 2.337a6.076 6.076 0 00-1 6.176l.057.134L.795 18.493a2.43 2.43 0 00-.359 3.186 2.555 2.555 0 003.657.453l1.801-1.719 8.7-8.363.188.073c2.224.813 4.752.393 6.57-1.13 1.966-1.646 2.722-4.265 1.918-6.654a.998.998 0 00-.72-.65 1.021 1.021 0 00-.935.247l-3.993 3.831-1.863-.254-.26-1.75 3.977-3.817a.975.975 0 00.269-.944.995.995 0 00-.676-.7C16.6-.464 13.894.257 12.184 2.139l-.172.198zm6.519-1.15l.223.064-3.958 3.8a.969.969 0 00-.29.843l.267 1.781a.99.99 0 00.85.829l1.856.254c.306.042.616-.057.838-.27l3.988-3.827h.017c.672 1.994.04 4.183-1.612 5.566-1.66 1.39-4.028 1.697-6.016.779l-.08-.03a.468.468 0 00-.465.11l-5.307 5.11-5.295 5.085c-.313.3-.75.454-1.196.418a1.52 1.52 0 01-1.101-.601c-.405-.585-.314-1.378.23-1.876L12.017 9.123a.5.5 0 00.101-.585c-.95-1.891-.634-4.142.806-5.727 1.39-1.531 3.573-2.157 5.606-1.623zM3.267 19.343a.756.756 0 00-.958.074.732.732 0 00-.166.819.75.75 0 00.69.45.75.75 0 00.69-.45l.037-.108a.734.734 0 00-.205-.713l-.088-.072z"
    fill="#171E36" />
</svg>