<svg width="21" height="20" viewBox="0 0 21 20" xmlns="http://www.w3.org/2000/svg">
  <title>Deletion</title>
  <desc>Visual World</desc>
  <g stroke="none" fill="#171E36" stroke-linecap="round">
    <path d="M1.19727 3.41683C0.783052 3.41683 0.447266 3.75262 0.447266 4.16683C0.447266 4.58104 0.783052 4.91683 1.19727 4.91683V3.41683ZM19.5306 4.91683C19.9448 4.91683 20.2806 4.58104 20.2806 4.16683C20.2806 3.75262 19.9448 3.41683 19.5306 3.41683V4.91683ZM8.48893 0.833496V0.0834961V0.833496ZM7.23893 2.0835H6.48893H7.23893ZM7.23893 4.16683H6.48893C6.48893 4.58104 6.82472 4.91683 7.23893 4.91683V4.16683ZM13.4889 4.16683V4.91683C13.9031 4.91683 14.2389 4.58104 14.2389 4.16683H13.4889ZM13.4889 2.0835H14.2389H13.4889ZM7.73893 14.7918C7.73893 15.206 8.07472 15.5418 8.48893 15.5418C8.90315 15.5418 9.23893 15.206 9.23893 14.7918H7.73893ZM9.23893 8.54183C9.23893 8.12762 8.90315 7.79183 8.48893 7.79183C8.07472 7.79183 7.73893 8.12762 7.73893 8.54183H9.23893ZM11.4889 14.7918C11.4889 15.206 11.8247 15.5418 12.2389 15.5418C12.6531 15.5418 12.9889 15.206 12.9889 14.7918H11.4889ZM12.9889 8.54183C12.9889 8.12762 12.6531 7.79183 12.2389 7.79183C11.8247 7.79183 11.4889 8.12762 11.4889 8.54183H12.9889ZM16.0806 18.0168L15.3332 17.9543L15.3326 17.9615L16.0806 18.0168ZM14.8389 19.1668L14.841 18.4168H14.8389V19.1668ZM5.88893 19.1668V18.4168L5.88689 18.4168L5.88893 19.1668ZM4.64727 18.0168L5.39525 17.9615L5.39466 17.9543L4.64727 18.0168ZM3.48893 4.16683V3.41683C3.27915 3.41683 3.07896 3.50469 2.93694 3.65908C2.79492 3.81347 2.72406 4.02029 2.74154 4.22934L3.48893 4.16683ZM17.2389 4.16683L17.9863 4.22934C18.0038 4.02029 17.9329 3.81347 17.7909 3.65908C17.6489 3.50469 17.4487 3.41683 17.2389 3.41683V4.16683ZM1.19727 4.91683H19.5306V3.41683H1.19727V4.91683ZM12.2389 0.0834961H8.48893V1.5835H12.2389V0.0834961ZM8.48893 0.0834961C7.9585 0.0834961 7.44979 0.29421 7.07472 0.669283L8.13538 1.72994C8.22915 1.63617 8.35632 1.5835 8.48893 1.5835V0.0834961ZM7.07472 0.669283C6.69965 1.04436 6.48893 1.55306 6.48893 2.0835H7.98893C7.98893 1.95089 8.04161 1.82371 8.13538 1.72994L7.07472 0.669283ZM6.48893 2.0835V4.16683H7.98893V2.0835H6.48893ZM7.23893 4.91683H13.4889V3.41683H7.23893V4.91683ZM14.2389 4.16683V2.0835H12.7389V4.16683H14.2389ZM14.2389 2.0835C14.2389 1.55306 14.0282 1.04436 13.6531 0.669283L12.5925 1.72994C12.6863 1.82371 12.7389 1.95089 12.7389 2.0835H14.2389ZM13.6531 0.669283C13.2781 0.29421 12.7694 0.0834961 12.2389 0.0834961V1.5835C12.3715 1.5835 12.4987 1.63617 12.5925 1.72994L13.6531 0.669283ZM9.23893 14.7918V8.54183H7.73893V14.7918H9.23893ZM12.9889 14.7918V8.54183H11.4889V14.7918H12.9889ZM15.3326 17.9615C15.3235 18.0855 15.2676 18.2014 15.1764 18.2859L16.1957 19.3864C16.5652 19.0441 16.7914 18.5745 16.8286 18.0722L15.3326 17.9615ZM15.1764 18.2859C15.0852 18.3704 14.9653 18.4172 14.841 18.4168L14.8369 19.9168C15.3406 19.9182 15.8261 19.7287 16.1957 19.3864L15.1764 18.2859ZM14.8389 18.4168H5.88893V19.9168H14.8389V18.4168ZM5.88689 18.4168C5.76254 18.4172 5.64268 18.3704 5.55145 18.2859L4.53219 19.3864C4.90175 19.7287 5.38727 19.9182 5.89098 19.9168L5.88689 18.4168ZM5.55145 18.2859C5.46022 18.2014 5.4044 18.0855 5.39522 17.9615L3.89931 18.0722C3.9365 18.5745 4.16264 19.0441 4.53219 19.3864L5.55145 18.2859ZM5.39466 17.9543L4.23632 4.10432L2.74154 4.22934L3.89987 18.0793L5.39466 17.9543ZM3.48893 4.91683H17.2389V3.41683H3.48893V4.91683ZM16.4915 4.10432L15.3332 17.9543L16.828 18.0793L17.9863 4.22934L16.4915 4.10432Z" />
  </g>
</svg>
