<svg width="151" height="148" xmlns="http://www.w3.org/2000/svg">
  <title>Preview image</title>
  <desc>Visual World</desc>
  <path
    d="M4.686.5h142.103q.148 0 .294.014.147.015.29.044.146.028.287.071.14.043.277.1.136.056.266.125.13.07.252.151.123.082.237.176.114.093.218.197.104.105.198.218.093.114.175.237.082.122.15.252.07.13.127.266.056.136.099.277.043.141.072.286.028.144.043.291.014.147.014.294v140.205q0 .147-.014.294-.015.146-.043.291-.03.144-.072.285-.043.141-.1.277-.055.136-.125.266t-.151.253q-.082.122-.175.236-.094.114-.198.218-.104.104-.218.198-.114.093-.237.175-.122.082-.252.151-.13.07-.266.126-.136.057-.277.099-.141.043-.286.072-.144.029-.291.043-.146.015-.294.015H4.686q-.148 0-.294-.015-.147-.014-.291-.043-.145-.029-.286-.072-.14-.042-.277-.099-.136-.056-.266-.126-.13-.069-.252-.151-.123-.082-.237-.175-.114-.094-.218-.198-.104-.104-.198-.218-.093-.114-.175-.236-.082-.123-.151-.253-.07-.13-.126-.266-.056-.136-.1-.277-.042-.141-.07-.285-.03-.145-.044-.292-.014-.146-.014-.293V3.499q0-.147.014-.294.015-.147.043-.291.03-.145.072-.286.043-.14.099-.277.056-.136.126-.266t.151-.252q.082-.123.175-.237.094-.113.198-.218.104-.104.218-.197.114-.094.237-.176.122-.081.252-.15.13-.07.266-.127.136-.056.277-.099.141-.043.286-.071.144-.03.29-.044Q4.539.5 4.687.5h0z"
    fill="#FFF" stroke="#2C5574" />
  <path
    d="M150.016 113.475H1.449M66.512 30.88c-7.302.021-13.515 5.083-14.683 11.962-3.353-1.231-7.152-.43-9.65 2.034-2.497 2.465-3.21 6.115-1.809 9.272s4.643 5.21 8.236 5.213h17.906c8.24 0 14.922-6.376 14.922-14.24 0-7.866-6.681-14.241-14.922-14.241h0zm-42.04 81.645s11.905-29.678 26.787-29.678 26.788 17.807 26.788 17.807L95.994 69.98a9.99 9.99 0 018.952-4.916 9.985 9.985 0 018.597 5.51l21.056 41.952"
    fill="none" stroke="#2C5574" stroke-linecap="round" stroke-linejoin="round" />
</svg>