<svg width="24" height="24" xmlns="http://www.w3.org/2000/svg">
  <title>Dark settings</title>
  <desc>Visual World</desc>
  <path
    d="M12.001 1.5a2.13 2.13 0 012.007 1.416l.392 1.1a1.13 1.13 0 001.55.643l1.054-.503a2.13 2.13 0 012.84 2.84l-.502 1.055a1.13 1.13 0 00.642 1.55l1.1.39a2.13 2.13 0 010 4.016l-1.1.392a1.13 1.13 0 00-.642 1.549L19.844 17a2.13 2.13 0 01-2.84 2.84l-1.054-.5a1.13 1.13 0 00-1.55.642l-.392 1.1a2.13 2.13 0 01-4.014 0l-.391-1.1a1.13 1.13 0 00-1.55-.642L7 19.84a2.13 2.13 0 01-2.841-2.84l.5-1.054a1.13 1.13 0 00-.641-1.55l-1.1-.391a2.13 2.13 0 010-4.016l1.1-.391A1.13 1.13 0 004.66 8.05l-.5-1.054a2.13 2.13 0 012.839-2.841l1.055.5a1.13 1.13 0 001.549-.64l.391-1.1A2.13 2.13 0 0112.001 1.5zm0 1c-.478 0-.904.3-1.065.751l-.391 1.101a2.13 2.13 0 01-2.92 1.208l-1.057-.502a1.13 1.13 0 00-1.506 1.509l.5 1.055a2.13 2.13 0 01-1.21 2.92l-1.1.39a1.13 1.13 0 000 2.131l1.1.392a2.13 2.13 0 011.21 2.92l-.5 1.057a1.13 1.13 0 001.507 1.507l1.054-.501a2.13 2.13 0 012.922 1.21l.391 1.1a1.13 1.13 0 002.13 0l.392-1.1a2.13 2.13 0 012.92-1.21l1.057.5a1.13 1.13 0 001.507-1.506l-.503-1.054a2.13 2.13 0 011.21-2.922l1.1-.391a1.13 1.13 0 000-2.13l-1.1-.392a2.13 2.13 0 01-1.21-2.922l.503-1.055a1.13 1.13 0 00-1.508-1.507l-1.055.502a2.13 2.13 0 01-2.921-1.21l-.392-1.1a1.13 1.13 0 00-1.065-.751zm0 6a3.5 3.5 0 110 7 3.5 3.5 0 010-7zm0 1a2.5 2.5 0 100 5 2.5 2.5 0 000-5z"
    fill="#171E36" />
</svg>