<svg width="24" height="24" viewBox="0 0 24 24" fill="none" xmlns="http://www.w3.org/2000/svg">
<path fill-rule="evenodd" clip-rule="evenodd" d="M16.3174 1.593C16.0867 1.4974 15.8321 1.47555 15.5886 1.53043C15.345 1.58532 15.1244 1.71425 14.957 1.89954L14.9548 1.90192L14.0113 2.9373C14.0108 2.93792 14.0102 2.93853 14.0096 2.93914C13.756 3.22021 13.4463 3.44498 13.1004 3.59894C12.7538 3.75323 12.3786 3.83296 11.9992 3.83296C11.6198 3.83296 11.2446 3.75323 10.898 3.59894C10.5518 3.4448 10.2417 3.2197 9.98791 2.93819C9.98765 2.93789 9.98738 2.9376 9.98712 2.9373L9.04914 1.90139C9.04898 1.90122 9.04929 1.90156 9.04914 1.90139C8.88169 1.7175 8.66117 1.58918 8.41847 1.53487C8.17555 1.48052 7.92177 1.50245 7.69177 1.59768C7.46177 1.69291 7.26675 1.85679 7.13332 2.06697C6.9999 2.27713 6.93456 2.52335 6.94621 2.77202C6.94622 2.77204 6.94621 2.772 6.94621 2.77202L7.01312 4.17115C7.03308 4.54987 6.97333 4.92857 6.83772 5.28275C6.70184 5.63764 6.49285 5.95996 6.22431 6.2288C5.95577 6.49764 5.63369 6.70698 5.27899 6.84322C4.92447 6.97939 4.54529 7.03949 4.16605 7.01963C4.16585 7.01962 4.16624 7.01964 4.16605 7.01963L2.76844 6.94874C2.76812 6.94872 2.76877 6.94876 2.76844 6.94874C2.5201 6.93707 2.27322 7.00224 2.06328 7.13546C1.85307 7.26886 1.68917 7.46393 1.59401 7.69401C1.49884 7.92409 1.47704 8.17795 1.53159 8.4209C1.58614 8.66384 1.71438 8.884 1.89878 9.05129L2.93904 9.99576C2.93926 9.99595 2.93883 9.99557 2.93904 9.99576C3.22017 10.2499 3.44554 10.5607 3.59939 10.907C3.75336 11.2536 3.83292 11.6287 3.83292 12.008C3.83292 12.3872 3.75336 12.7623 3.59939 13.1089C3.44542 13.4555 3.22046 13.766 2.93904 14.0202L1.89817 14.9602C1.89813 14.9602 1.89821 14.9602 1.89817 14.9602C1.71324 15.1277 1.58454 15.3484 1.52994 15.5918C1.47533 15.8353 1.49743 16.0898 1.59319 16.3202C1.68896 16.5507 1.85369 16.7458 2.06478 16.8789C2.27587 17.0119 2.52297 17.0764 2.77216 17.0634L2.77326 17.0633L4.17332 16.9923C4.55204 16.9728 4.93063 17.0331 5.28459 17.1692C5.63856 17.3053 5.96002 17.5141 6.22816 17.7823C6.49631 18.0505 6.70518 18.372 6.84125 18.726C6.97732 19.08 7.03756 19.4587 7.01808 19.8375L6.94625 21.2341C6.94623 21.2347 6.9462 21.2353 6.94617 21.2359C6.93519 21.4839 7.00073 21.7292 7.13393 21.9387C7.26746 22.1486 7.46249 22.3123 7.69243 22.4074C7.92237 22.5025 8.17602 22.5243 8.41882 22.4699C8.6614 22.4156 8.88135 22.2878 9.04873 22.104C9.04888 22.1038 9.04858 22.1042 9.04873 22.104L9.99269 21.064C9.99297 21.0637 9.99325 21.0634 9.99353 21.0631C10.2475 20.782 10.5575 20.5574 10.9036 20.4035C11.2501 20.2495 11.625 20.17 12.0042 20.17C12.3834 20.17 12.7583 20.2495 13.1048 20.4035C13.4512 20.5575 13.7614 20.7824 14.0155 21.0637C14.0155 21.0638 14.0154 21.0636 14.0155 21.0637L14.9537 22.1018C14.9542 22.1023 14.9546 22.1028 14.9551 22.1034C15.1226 22.2857 15.3421 22.4123 15.5839 22.4659C15.8263 22.5197 16.0795 22.4976 16.3089 22.4025C16.5383 22.3073 16.7329 22.1439 16.8663 21.9343C16.9992 21.7254 17.0648 21.4806 17.0542 21.2331C17.0542 21.2325 17.0542 21.2318 17.0541 21.2311L16.9833 19.8355C16.9639 19.4567 17.0241 19.078 17.1602 18.724C17.2962 18.37 17.5051 18.0485 17.7733 17.7803C18.0414 17.5121 18.3629 17.3032 18.7168 17.1672C19.0708 17.0311 19.4494 16.9708 19.8281 16.9903L21.2282 17.0613C21.4775 17.074 21.7249 17.0092 21.9359 16.8758C22.147 16.7424 22.3116 16.547 22.4072 16.3163C22.5028 16.0856 22.5247 15.8309 22.4698 15.5873C22.4149 15.3439 22.2861 15.1233 22.1011 14.9559C22.1009 14.9558 22.1012 14.956 22.1011 14.9559L21.0587 14.0155C20.7773 13.7613 20.552 13.4505 20.398 13.1039C20.2441 12.7573 20.1645 12.3822 20.1645 12.003C20.1645 11.6237 20.2441 11.2486 20.398 10.902C20.552 10.5554 20.777 10.245 21.0584 9.99076L22.1007 9.05037C22.2858 8.88305 22.4146 8.66257 22.4695 8.41914C22.5244 8.17572 22.5027 7.92127 22.4074 7.69067C22.3121 7.46006 22.1477 7.26459 21.937 7.13104C21.7263 6.99756 21.4796 6.93247 21.2305 6.94466C21.2304 6.94467 21.2307 6.94466 21.2305 6.94466L19.8291 7.01574C19.4512 7.03419 19.0736 6.97327 18.7207 6.8369C18.3678 6.70053 18.0473 6.49173 17.78 6.22396C17.5126 5.95619 17.3043 5.63538 17.1685 5.28219C17.0327 4.92901 16.9723 4.55129 16.9913 4.17335L17.0623 2.77223C17.075 2.52283 17.0103 2.27546 16.8769 2.06435C16.7435 1.85324 16.5481 1.68859 16.3174 1.593ZM15.2588 0.0662773C15.8045 -0.0567021 16.375 -0.00773187 16.8919 0.206467C17.4087 0.420666 17.8466 0.789595 18.1455 1.26262C18.4443 1.73565 18.5895 2.28959 18.5611 2.84841L18.49 4.24872C18.4816 4.41731 18.5085 4.58581 18.5691 4.74336C18.6297 4.90091 18.7226 5.04402 18.8419 5.16347C18.9611 5.28292 19.1041 5.37606 19.2615 5.43689C19.4188 5.49765 19.587 5.52484 19.7554 5.5167C19.7556 5.51669 19.7552 5.51671 19.7554 5.5167L21.1562 5.44565C21.7146 5.41812 22.2678 5.56397 22.7401 5.86322C23.2124 6.16246 23.5805 6.60046 23.7942 7.11717C24.0078 7.63389 24.0564 8.20403 23.9334 8.74947C23.8103 9.2949 23.5216 9.78893 23.1069 10.1638L22.0643 11.1045C21.9386 11.218 21.8382 11.3567 21.7694 11.5114C21.7007 11.6662 21.6651 11.8336 21.6651 12.003C21.6651 12.1723 21.7007 12.3398 21.7694 12.4945C21.8382 12.6493 21.9386 12.7879 22.0642 12.9014C22.0642 12.9014 22.0642 12.9014 22.0642 12.9014L23.1063 13.8416C23.5215 14.2168 23.8108 14.7116 23.9337 15.2575C24.0567 15.8033 24.0077 16.3739 23.7936 16.8908C23.5794 17.4077 23.2105 17.8457 22.7376 18.1446C22.2646 18.4435 21.7107 18.5887 21.152 18.5602L19.7516 18.4892C19.5826 18.4805 19.4132 18.5074 19.2553 18.5681C19.0974 18.6288 18.954 18.722 18.8344 18.8416C18.7148 18.9612 18.6216 19.1046 18.5609 19.2626C18.5002 19.4205 18.4733 19.5894 18.482 19.7584L18.5533 21.1643C18.578 21.7203 18.4311 22.2705 18.1323 22.7401C17.8336 23.2096 17.3976 23.5758 16.8835 23.7889C16.3694 24.002 15.8022 24.0517 15.2589 23.9312C14.7156 23.8106 14.2226 23.5258 13.8468 23.1152L13.8436 23.1117L12.9022 22.0701C12.7888 21.9445 12.65 21.8438 12.4954 21.7751C12.3408 21.7063 12.1734 21.6708 12.0042 21.6708C11.835 21.6708 11.6677 21.7063 11.513 21.7751C11.3584 21.8438 11.2199 21.9442 11.1065 22.0698L11.1051 22.0713L10.1597 23.1129C9.78456 23.5253 9.29079 23.8126 8.74676 23.9345C8.20273 24.0563 7.63436 24.0074 7.11913 23.7944C6.60391 23.5814 6.16691 23.2146 5.86771 22.7442C5.56851 22.2737 5.42166 21.7223 5.44718 21.1653L5.44739 21.1612L5.51942 19.7604C5.52811 19.5914 5.50124 19.4225 5.44054 19.2646C5.37984 19.1066 5.28666 18.9632 5.16705 18.8436C5.04743 18.724 4.90403 18.6308 4.74613 18.5701C4.58823 18.5094 4.41935 18.4825 4.25041 18.4912L2.85038 18.5622C2.85009 18.5622 2.85066 18.5622 2.85038 18.5622C2.29207 18.5912 1.73761 18.4467 1.26464 18.1486C0.791432 17.8503 0.422139 17.4128 0.207465 16.8962C-0.00720897 16.3796 -0.0567402 15.8092 0.0656719 15.2634C0.188084 14.7175 0.476437 14.2229 0.891145 13.8475L1.93317 12.9064C2.05882 12.7929 2.15926 12.6543 2.22801 12.4995C2.29676 12.3448 2.33228 12.1773 2.33228 12.008C2.33228 11.8386 2.29676 11.6712 2.22801 11.5164C2.15926 11.3617 2.05882 11.223 1.93317 11.1095L1.93178 11.1083L0.890541 10.1629C0.890472 10.1629 0.890609 10.163 0.890541 10.1629C0.477288 9.78793 0.189685 9.29428 0.0674164 8.74976C-0.054872 8.20516 -0.0060073 7.63607 0.207331 7.12029C0.420669 6.60451 0.78807 6.16721 1.25931 5.86818C1.73055 5.56914 2.28263 5.42295 2.84009 5.4496L2.84227 5.4497L4.24426 5.52082C4.41352 5.52972 4.58276 5.50291 4.74098 5.44214C4.89921 5.38136 5.04288 5.28798 5.16268 5.16805C5.28247 5.04813 5.3757 4.90434 5.43631 4.74604C5.49692 4.58773 5.52356 4.41844 5.5145 4.24916L5.51427 4.24488L5.44725 2.84309C5.42111 2.28585 5.56749 1.73343 5.86647 1.26249C6.16544 0.791545 6.60242 0.424332 7.11778 0.210956C7.63314 -0.00242028 8.20178 -0.0515656 8.74609 0.0702258C9.29041 0.192017 9.7839 0.478813 10.1592 0.891479L10.1603 0.89271L11.1021 1.93275C11.2153 2.05846 11.3537 2.15896 11.5082 2.22776C11.6628 2.29656 11.83 2.33211 11.9992 2.33211C12.1684 2.33211 12.3357 2.29656 12.4902 2.22776C12.6448 2.15896 12.7831 2.05846 12.8964 1.93275L12.8993 1.92954L13.8435 0.893331C13.8439 0.892901 13.8443 0.892471 13.8447 0.892041C14.2196 0.477559 14.7135 0.189129 15.2588 0.0662773ZM8.28531 8.28905C9.2703 7.30392 10.6062 6.75048 11.9992 6.75048C13.3922 6.75048 14.7281 7.30392 15.7131 8.28905C16.6981 9.27417 17.2515 10.6103 17.2515 12.0035C17.2515 13.3967 16.6981 14.7328 15.7131 15.7179C14.7281 16.703 13.3922 17.2565 11.9992 17.2565C10.6062 17.2565 9.2703 16.703 8.28531 15.7179C7.30032 14.7328 6.74696 13.3967 6.74696 12.0035C6.74696 10.6103 7.30032 9.27417 8.28531 8.28905ZM11.9992 8.25134C11.0042 8.25134 10.05 8.64665 9.34642 9.35031C8.64286 10.054 8.2476 11.0083 8.2476 12.0035C8.2476 12.9986 8.64286 13.953 9.34642 14.6566C10.05 15.3603 11.0042 15.7556 11.9992 15.7556C12.9942 15.7556 13.9484 15.3603 14.652 14.6566C15.3556 13.953 15.7508 12.9986 15.7508 12.0035C15.7508 11.0083 15.3556 10.054 14.652 9.35031C13.9484 8.64665 12.9942 8.25134 11.9992 8.25134Z" fill="#111111"/>
</svg>
