<svg width="24" height="24" xmlns="http://www.w3.org/2000/svg">
  <title>Signing out</title>
  <desc>Visual World</desc>
  <path
    d="M.784 1.802l8-1.778A1 1 0 0110 1v1h7a1 1 0 01.993.883L18 3v2.5a.5.5 0 01-.992.09L17 5.5V3h-7v18h7v-2.5a.5.5 0 01.992-.09l.008.09V21a1 1 0 01-.883.993L17 22h-7v1a1 1 0 01-1.216.976l-8-1.777A1 1 0 010 21.223V2.778a1 1 0 01.784-.976zM9 1v22l-8-1.777V2.778L9 1zm6.854 6.646a.5.5 0 00-.708 0l-4 4a.5.5 0 000 .707l4 4 .07.058a.5.5 0 00.638-.057l.057-.07a.5.5 0 00-.057-.638L12.707 12.5H23.5l.09-.008a.5.5 0 00-.09-.992H12.707l3.147-3.146.057-.07a.5.5 0 00-.057-.638zM6 10a2 2 0 100 4 2 2 0 000-4zm0 1a1 1 0 110 2 1 1 0 010-2z"
    fill="#171E36" fill-rule="evenodd" />
</svg>