<svg width="18" height="18" viewBox="0 0 18 18" fill="none" xmlns="http://www.w3.org/2000/svg">
  <title>Undo</title>
  <desc>Visual World</desc>
  <g>
    <path d="M1.72803 6.5437C1.72803 6.00355 1.29015 5.56568 0.75 5.56568C0.20985 5.56568 -0.228028 6.00355 -0.228028 6.5437H1.72803ZM0.75 12.5967H-0.228028C-0.228028 13.1368 0.20985 13.5747 0.75 13.5747L0.75 12.5967ZM6.80298 13.5747C7.34313 13.5747 7.781 13.1368 7.781 12.5967C7.781 12.0565 7.34313 11.6187 6.80298 11.6187V13.5747ZM16.4513 10.9477C16.763 11.3889 17.3733 11.4938 17.8144 11.182C18.2556 10.8703 18.3604 10.26 18.0487 9.81888L16.4513 10.9477ZM13.4457 7.29247L13.0567 8.18984L13.4457 7.29247ZM8.58904 6.62962L8.72327 7.59839L8.58904 6.62962ZM4.09558 8.58794L4.71383 9.34576V9.34576L4.09558 8.58794ZM0.352813 12.2707C0.172763 12.7799 0.439639 13.3387 0.948897 13.5188C1.45816 13.6988 2.01695 13.4319 2.197 12.9227L0.352813 12.2707ZM-0.228028 6.5437V12.5967H1.72803V6.5437H-0.228028ZM0.75 13.5747H6.80298V11.6187H0.75V13.5747ZM18.0487 9.81888C16.9845 8.31286 15.5266 7.12843 13.8346 6.3951L13.0567 8.18984C14.4197 8.78055 15.594 9.73462 16.4513 10.9477L18.0487 9.81888ZM13.8346 6.3951C12.1426 5.66177 10.2815 5.40776 8.45482 5.66084L8.72327 7.59839C10.1947 7.39453 11.6938 7.59913 13.0567 8.18984L13.8346 6.3951ZM8.45482 5.66084C6.62816 5.91393 4.90624 6.66437 3.47733 7.83011L4.71383 9.34576C5.86484 8.40674 7.25187 7.80225 8.72327 7.59839L8.45482 5.66084ZM3.47733 7.83011C2.04841 8.99586 0.967517 10.532 0.352813 12.2707L2.197 12.9227C2.69215 11.5222 3.56283 10.2848 4.71383 9.34576L3.47733 7.83011Z" fill="#171E36"/>
  </g>
</svg>