<svg width="1440" height="1024" xmlns="http://www.w3.org/2000/svg">
  <title>Background with bubbles</title>
  <desc>Visual World</desc>
  <path d="M0 0h1440v1024H0z" fill="#171E36" />
  <path d="M34.5 228c10.217 0 18.5-8.283 18.5-18.5S44.717 191 34.5 191 16 199.283 16 209.5 24.283 228 34.5 228z"
    fill="#3A3F51" fill-opacity=".68" />
  <path d="M53 209a9 9 0 100-18 9 9 0 000 18zm1285 546a9 9 0 100-18 9 9 0 000 18z" fill="#AEB1BB" />
  <path
    d="M243.748 496.69c-3.925 5.348-9.763 8.903-16.247 9.894-8.568 1.368-17.202-2.022-22.65-8.894-5.447-6.871-6.88-16.18-3.76-24.42 3.12-8.24 10.32-14.159 18.889-15.527 1.318-.203 2.65-.31 3.984-.316a25.09 25.09 0 015.636.83 16.859 16.859 0 013.886-5.065 30.562 30.562 0 00-14.4-1.148c-15.777 2.16-27.165 16.467-25.974 32.631 1.19 16.164 14.547 28.581 30.463 28.321a31.32 31.32 0 004.858-.396c8-1.244 15.194-5.653 20.018-12.27 4.623-6.27 6.66-14.13 5.675-21.906a16.296 16.296 0 01-5.597 2.73 24.586 24.586 0 01-4.781 15.535z"
    fill="#3A3F51" fill-opacity=".6" />
  <path
    d="M233.743 478.982a16.652 16.652 0 009.636 3.017c.895.01 1.79-.048 2.675-.174 8.939-1.342 15.093-9.538 13.766-18.334-.658-4.218-3.037-7.99-6.588-10.443-5.384-3.791-12.547-4.068-18.217-.704-5.67 3.364-8.761 9.724-7.86 16.176.661 4.222 3.039 7.998 6.588 10.462zm8.206-22.85a10.29 10.29 0 011.698-.132c2.196.043 4.323.742 6.091 2.001 2.24 1.52 3.741 3.859 4.158 6.474.803 5.504-3.137 10.603-8.823 11.42a10.916 10.916 0 01-7.809-1.888c-2.229-1.522-3.728-3.85-4.158-6.455-.813-5.513 3.143-10.622 8.843-11.42z"
    fill="#3A3F51" fill-rule="evenodd" />
  <path
    d="M973.01 54.504c.272 6.446 5.59 11.523 12.04 11.496.606.001 1.21-.047 1.807-.145 6.373-.998 10.816-6.857 10.059-13.263-.757-6.406-6.443-11.068-12.873-10.553-6.43.514-11.303 6.02-11.032 12.465zm10.67-8.372a8.261 8.261 0 011.272 0l.044-.132a8 8 0 11-7.89 6.707 8.11 8.11 0 016.575-6.575zM275.017 296.278c.417 9.936 8.616 17.764 18.56 17.722.933.001 1.865-.073 2.786-.223 9.825-1.54 16.675-10.572 15.507-20.448-1.167-9.876-9.933-17.062-19.846-16.27-9.913.794-17.425 9.282-17.007 19.219zm16.421-13.073a12.909 12.909 0 011.987 0l.068-.205a12.5 12.5 0 11-12.328 10.48 12.67 12.67 0 0110.273-10.275z"
    fill="#6D7385" fill-rule="evenodd" />
  <path
    d="M1351.5 352c37.279 0 67.5-30.221 67.5-67.5 0-37.28-30.221-67.5-67.5-67.5-37.28 0-67.5 30.22-67.5 67.5 0 37.279 30.22 67.5 67.5 67.5z"
    fill="none" stroke="#3A3F51" stroke-opacity=".76" stroke-width="18" />
  <path d="M1395.5 52c5.799 0 10.5-4.701 10.5-10.5s-4.701-10.5-10.5-10.5-10.5 4.701-10.5 10.5 4.701 10.5 10.5 10.5z"
    fill="#AEB1BB" />
  <path
    d="M1383.017 326.278c.417 9.936 8.616 17.764 18.56 17.722.933.001 1.865-.073 2.786-.223 9.825-1.54 16.675-10.572 15.507-20.448-1.167-9.876-9.933-17.062-19.846-16.27-9.913.794-17.425 9.282-17.007 19.219zm16.421-13.073a12.909 12.909 0 011.987 0l.068-.205a12.5 12.5 0 11-12.328 10.48 12.67 12.67 0 0110.273-10.275z"
    fill="#6D7385" fill-rule="evenodd" />
  <path d="M264 976a9 9 0 100-18 9 9 0 000 18z" fill="#AEB1BB" fill-opacity=".54" />
</svg>