<svg width="24" height="24" xmlns="http://www.w3.org/2000/svg">
  <title>Middle alignment</title>
  <desc>Visual World</desc>
  <g fill="none" stroke="#171E36" stroke-linecap="round">
    <path
      d="M18 12h4M10 12h3M2 12h3M5 16.001V7.999q0-.098.02-.195.018-.096.056-.187.038-.091.092-.173.055-.082.125-.151.07-.07.151-.125.082-.054.173-.092.09-.038.187-.057Q5.901 7 6 7h3.002q.098 0 .195.02.096.018.187.056.091.038.173.092.082.055.151.125.07.07.125.151.054.082.092.173.038.09.057.187Q10 7.901 10 8v8.002q0 .098-.02.195-.018.096-.056.187-.038.091-.092.173-.055.082-.125.151-.07.07-.151.125-.082.054-.173.092-.09.038-.187.057Q9.099 17 9 17H5.999q-.098 0-.195-.02-.096-.018-.187-.056-.091-.038-.173-.092-.082-.055-.151-.125-.07-.07-.125-.151-.054-.082-.092-.173-.038-.09-.057-.187Q5 16.099 5 16zM13 19.001V4.999q0-.098.02-.195.018-.096.056-.187.038-.091.092-.173.055-.082.125-.151.07-.07.151-.125.082-.054.173-.092.09-.038.187-.057Q13.901 4 14 4h3.002q.098 0 .195.02.096.018.187.056.091.038.173.092.082.055.151.125.07.07.125.151.054.082.092.173.038.09.057.187Q18 4.901 18 5v14.002q0 .098-.02.195-.018.096-.056.187-.038.091-.092.173-.055.082-.125.151-.07.07-.151.125-.082.054-.173.092-.09.038-.187.057Q17.099 20 17 20h-3.002q-.098 0-.195-.02-.096-.018-.187-.056-.091-.038-.173-.092-.082-.055-.151-.125-.07-.07-.125-.151-.054-.082-.092-.173-.038-.09-.057-.187Q13 19.099 13 19z" />
  </g>
</svg>