<svg width="24" height="24" xmlns="http://www.w3.org/2000/svg">
  <title>Top alignment</title>
  <desc>Visual World</desc>
  <g fill="none" stroke="#171E36" stroke-linecap="round">
    <path
      d="M10 5.999v8.002q0 .098-.02.195-.018.096-.056.187-.038.091-.092.173-.055.082-.125.151-.07.07-.151.125-.082.054-.173.092-.09.038-.187.057Q9.099 15 9 15H5.999q-.098 0-.195-.02-.096-.018-.187-.056-.091-.038-.173-.092-.082-.055-.151-.125-.07-.07-.125-.151-.054-.082-.092-.173-.038-.09-.057-.187Q5 14.099 5 14V5.999q0-.098.02-.195.018-.096.056-.187.038-.091.092-.173.055-.082.125-.151.07-.07.151-.125.082-.054.173-.092.09-.038.187-.057Q5.901 5 6 5h3.002q.098 0 .195.02.096.018.187.056.091.038.173.092.082.055.151.125.07.07.125.151.054.082.092.173.038.09.057.187Q10 5.901 10 6zM18 5.999v14.002q0 .098-.02.195-.018.096-.056.187-.038.091-.092.173-.055.082-.125.151-.07.07-.151.125-.082.054-.173.092-.09.038-.187.057Q17.099 21 17 21h-3.002q-.098 0-.195-.02-.096-.018-.187-.056-.091-.038-.173-.092-.082-.055-.151-.125-.07-.07-.125-.151-.054-.082-.092-.173-.038-.09-.057-.187Q13 20.099 13 20V5.999q0-.098.02-.195.018-.096.056-.187.038-.091.092-.173.055-.082.125-.151.07-.07.151-.125.082-.054.173-.092.09-.038.187-.057Q13.901 5 14 5h3.002q.098 0 .195.02.096.018.187.056.091.038.173.092.082.055.151.125.07.07.125.151.054.082.092.173.038.09.057.187Q18 5.901 18 6zM2 3h20" />
  </g>
</svg>