<svg width="24" height="24" xmlns="http://www.w3.org/2000/svg">
  <title>Left alignment</title>
  <desc>Visual World</desc>
  <g fill="none" stroke="#171E36" stroke-linecap="round">
    <path
      d="M3 2v20M5.999 5h8.002q.098 0 .195.02.096.018.187.056.091.038.173.092.082.055.151.125.07.07.125.151.054.082.092.173.038.09.057.187Q15 5.901 15 6v3.002q0 .098-.02.195-.018.096-.056.187-.038.091-.092.173-.055.082-.125.151-.07.07-.151.125-.082.054-.173.092-.09.038-.187.057Q14.099 10 14 10H5.999q-.098 0-.195-.02-.096-.018-.187-.056-.091-.038-.173-.092-.082-.055-.151-.125-.07-.07-.125-.151-.054-.082-.092-.173-.038-.09-.057-.187Q5 9.099 5 9V5.999q0-.098.02-.195.018-.096.056-.187.038-.091.092-.173.055-.082.125-.151.07-.07.151-.125.082-.054.173-.092.09-.038.187-.057Q5.901 5 6 5zM5.999 13h14.002q.098 0 .195.02.096.018.187.056.091.038.173.092.082.055.151.125.07.07.125.151.054.082.092.173.038.09.057.187.019.097.019.195v3.002q0 .098-.02.195-.018.096-.056.187-.038.091-.092.173-.055.082-.125.151-.07.07-.151.125-.082.054-.173.092-.09.038-.187.057Q20.099 18 20 18H5.999q-.098 0-.195-.02-.096-.018-.187-.056-.091-.038-.173-.092-.082-.055-.151-.125-.07-.07-.125-.151-.054-.082-.092-.173-.038-.09-.057-.187Q5 17.099 5 17v-3.002q0-.098.02-.195.018-.096.056-.187.038-.091.092-.173.055-.082.125-.151.07-.07.151-.125.082-.054.173-.092.09-.038.187-.057Q5.901 13 6 13z" />
  </g>
</svg>