<svg width="19" height="19" viewBox="0 0 19 19" fill="none" xmlns="http://www.w3.org/2000/svg">
  <title>Component edition</title>
  <desc>Visual World</desc>
  <path d="M16.4151 9.75455C17.2141 8.95597 17.7412 7.92608 17.9218 6.811C18.1023 5.69593 17.9272 4.5523 17.4211 3.54241L14.6741 6.28633C14.4564 6.50393 14.1612 6.62618 13.8534 6.62618C13.5457 6.62618 13.2505 6.50393 13.0328 6.28633L12.4138 5.66729C12.3059 5.55949 12.2203 5.43151 12.162 5.29063C12.1036 5.14976 12.0735 4.99876 12.0735 4.84627C12.0735 4.69378 12.1036 4.54279 12.162 4.40192C12.2203 4.26104 12.3059 4.13305 12.4138 4.02526L15.1995 1.23955C14.2022 0.695026 13.0581 0.480498 11.9313 0.626763C10.8045 0.773027 9.75305 1.27256 8.92786 2.05365C8.10268 2.83474 7.54621 3.85721 7.33834 4.97427C7.13048 6.09133 7.28191 7.24552 7.7709 8.27116L0.928106 15.1093C0.817157 15.2201 0.72914 15.3517 0.669087 15.4966C0.609035 15.6414 0.578125 15.7967 0.578125 15.9535C0.578125 16.1104 0.609035 16.2656 0.669087 16.4105C0.72914 16.5553 0.817157 16.6869 0.928106 16.7978L1.77233 17.6428C1.88322 17.7537 2.01488 17.8418 2.15981 17.9018C2.30473 17.9619 2.46007 17.9928 2.61695 17.9928C2.77382 17.9928 2.92916 17.9619 3.07408 17.9018C3.21901 17.8418 3.35067 17.7537 3.46156 17.6428L10.2989 10.8054C11.302 11.284 12.4287 11.44 13.524 11.2518C14.6193 11.0636 15.6294 10.5405 16.4151 9.75455V9.75455Z" stroke="#171E36" stroke-width="1.39286" stroke-linecap="round" stroke-linejoin="round"/>
</svg>
