<svg width="24" height="24" xmlns="http://www.w3.org/2000/svg">
  <title>Vertical distribution</title>
  <desc>Visual World</desc>
  <g fill="none" stroke="#171E36" stroke-linecap="round">
    <path
      d="M4.499 9.5h14.002q.098 0 .195.02.096.018.187.056.091.038.173.092.082.055.151.125.07.07.125.151.054.082.092.173.038.09.057.187.019.097.019.195v3.002q0 .098-.02.195-.018.096-.056.187-.038.091-.092.173-.055.082-.125.151-.07.07-.151.125-.082.054-.173.092-.09.038-.187.057-.097.019-.195.019H4.499q-.098 0-.195-.02-.096-.018-.187-.056-.091-.038-.173-.092-.082-.055-.151-.125-.07-.07-.125-.151-.054-.082-.092-.173-.038-.09-.057-.187-.019-.097-.019-.195v-3.002q0-.098.02-.195.018-.096.056-.187.038-.091.092-.173.055-.082.125-.151.07-.07.151-.125.082-.054.173-.092.09-.038.187-.057.097-.019.195-.019zM7.5 6.5h8M7.5 17.5h8" />
  </g>
</svg>