<svg width="25" height="24" viewBox="0 0 25 24" xmlns="http://www.w3.org/2000/svg">
  <title>Edition</title>
  <desc>Visual World</desc>
  <g fill="transparent" stroke="#171E36" stroke-width="1.5" stroke-linecap="round" stroke-linejoin="round">
    <path d="M22.9484 14.8699L15.3184 22.4999L11.5684 23.2499L12.3184 19.4999L19.9484 11.8699C20.1447 11.6732 20.3779 11.5172 20.6346 11.4107C20.8913 11.3043 21.1665 11.2495 21.4444 11.2495C21.7223 11.2495 21.9974 11.3043 22.2541 11.4107C22.5108 11.5172 22.744 11.6732 22.9404 11.8699L22.9484 11.8779C23.145 12.0742 23.301 12.3074 23.4075 12.5641C23.5139 12.8208 23.5687 13.096 23.5687 13.3739C23.5687 13.6518 23.5139 13.9269 23.4075 14.1836C23.301 14.4403 23.145 14.6735 22.9484 14.8699V14.8699Z" />
    <path d="M4.06836 6.75H14.5684"  stroke="#171E36" />
    <path d="M4.06836 11.25H14.5684" stroke="#171E36" />
    <path d="M4.06836 15.75H9.31836" stroke="#171E36" />
    <path d="M7.81836 20.25H2.56836C2.17053 20.25 1.789 20.092 1.5077 19.8107C1.22639 19.5294 1.06836 19.1478 1.06836 18.75V2.25C1.06836 1.85218 1.22639 1.47064 1.5077 1.18934C1.789 0.908035 2.17053 0.75 2.56836 0.75H13.1974C13.5949 0.750085 13.9762 0.907982 14.2574 1.189L17.1294 4.061C17.4104 4.3422 17.5683 4.72345 17.5684 5.121V8.25" />
  </g>
</svg>
