<svg width="24" height="24" xmlns="http://www.w3.org/2000/svg">
  <title>Over sending</title>
  <desc>Visual World</desc>
    <g fill="none" fill-rule="evenodd">
        <path d="M0 0h24v24H0z" />
        <path
            d="M14.538 15l2.34 1.69a1 1 0 010 1.62l-7.293 5.267a1 1 0 01-1.17 0l-7.293-5.266a1 1 0 010-1.622l2.339-1.688.854.616L1.708 17.5 9 22.766l7.291-5.266-2.607-1.883.854-.617zm6.192-7.444l.082.054 2.5 2a.5.5 0 01-.55.83l-.074-.05L21 9.04V19.5a.5.5 0 01-.992.09L20 19.5V9.04l-1.688 1.35a.5.5 0 01-.64-.013l-.062-.065a.5.5 0 01.013-.64l.065-.062 2.5-2a.5.5 0 01.542-.054zM15.23 10.5l.172.124 1.475 1.065a1 1 0 010 1.622l-7.293 5.266a1 1 0 01-1.17 0l-7.293-5.266a1 1 0 010-1.622l1.482-1.07.165-.119.854.616-.161.117L1.708 12.5 9 17.766l7.291-5.266-1.744-1.26-.171-.123.855-.617zM9.585 1.423l7.293 5.266a1 1 0 010 1.622l-7.293 5.266a1 1 0 01-1.17 0L1.122 8.311a1 1 0 010-1.622l7.293-5.266a1 1 0 011.17 0z"
            fill="#171E36" fill-rule="nonzero" />
    </g>
</svg>