<svg width="24" height="24" xmlns="http://www.w3.org/2000/svg">
  <title>Under sending</title>
  <desc>Visual World</desc>
    <g fill="none" fill-rule="evenodd">
      <path d="M0 0h24v24H0z" />
      <path
        d="M14.538 10l2.34 1.69a1 1 0 010 1.62L14.538 15l2.34 1.69a1 1 0 010 1.62l-7.293 5.267a1 1 0 01-1.17 0l-7.293-5.266a1 1 0 010-1.622l2.339-1.688-2.339-1.69a1 1 0 010-1.622l2.339-1.688.854.616L1.708 12.5 9 17.766l7.291-5.266-2.607-1.883.854-.617zM20.5 5a.5.5 0 01.492.41L21 5.5v10.46l1.688-1.35.075-.05a.5.5 0 01.55.83l-2.5 2-.083.054a.5.5 0 01-.542-.054l-2.5-2-.065-.062a.5.5 0 01-.013-.64l.062-.065a.5.5 0 01.64-.013L20 15.96V5.5a.5.5 0 01.5-.5zM9.585.423l7.293 5.266a1 1 0 010 1.622l-7.293 5.266a1 1 0 01-1.17 0L1.122 7.311a1 1 0 010-1.622L8.415.423a1 1 0 011.17 0zM9 1.233L1.708 6.5 9 11.766 16.291 6.5 9 1.234z"
        fill="#171E36" fill-rule="nonzero" />
    </g>
</svg>