<svg width="24" height="24" xmlns="http://www.w3.org/2000/svg">
  <title>Background sending</title>
  <desc>Visual World</desc>
  <g fill="none" stroke="#171E36">
    <path d="M17.5 4.019V10.5m-17 3.502V4.019M3.986.5h10.015" stroke-dasharray="2 2" />
    <path d="M16.5.52c.552 0 1 .43 1 .96M.52 1.5c0-.552.43-1 .96-1m.02 16.98c-.552 0-1-.43-1-.96"
      stroke-linecap="round" />
    <path d="M3.986 17.5H10.5" stroke-dasharray="2 2" />
    <path d="M11 11l6.003 6.003" stroke-linecap="round" />
    <path d="M12.5 17.503h5.002V12.5" stroke-linecap="round" stroke-linejoin="round" />
    <path d="M19.03 6.5h3.47a1 1 0 011 1v15a1 1 0 01-1 1h-15a1 1 0 01-1-1v-3.525" stroke-linejoin="round" />
  </g>
</svg>