<svg width="24" height="24" viewBox="0 0 24 24" fill="none" xmlns="http://www.w3.org/2000/svg">
  <title>Draw</title>
  <desc>Visual World</desc>
  <g>
    <path d="M3.747 18.75H3C2.40326 18.75 1.83097 18.9871 1.40901 19.409C0.987053 19.831 0.75 20.4033 0.75 21C0.75 21.5967 0.987053 22.169 1.40901 22.591C1.83097 23.0129 2.40326 23.25 3 23.25H18.75" stroke="#171E36" stroke-width="1.5" stroke-linecap="round" stroke-linejoin="round"/>
    <path d="M6.00598 17.7652C8.10071 15.9861 6.93066 13.0402 8.78462 11.5091C9.0933 11.2425 9.45217 11.0402 9.84012 10.9142C10.2281 10.7882 10.6373 10.741 11.0438 10.7754C11.4502 10.8097 11.8457 10.925 12.207 11.1143C12.5683 11.3037 12.8881 11.5634 13.1476 11.8781C13.4071 12.1928 13.6011 12.5562 13.7182 12.9469C13.8353 13.3376 13.8732 13.7478 13.8295 14.1534C13.7859 14.559 13.6616 14.9517 13.464 15.3086C13.2664 15.6654 12.9995 15.9792 12.679 16.2315C11.7805 17.0195 10.7005 17.5721 9.53587 17.8398C8.3712 18.1075 7.15829 18.0818 6.00598 17.7652V17.7652Z" stroke="#171E36" stroke-width="1.66435" stroke-linecap="round" stroke-linejoin="round"/>
    <path d="M13.5914 12.7779L21.9575 4.92431C22.182 4.70796 22.3593 4.44752 22.4784 4.15935C22.5974 3.87117 22.6556 3.56149 22.6492 3.24976C22.6429 2.93803 22.5721 2.63099 22.4414 2.34792C22.3107 2.06485 22.1228 1.81187 21.8896 1.60487C21.6565 1.39788 21.383 1.24134 21.0864 1.14509C20.7899 1.04885 20.4766 1.01497 20.1663 1.0456C19.856 1.07622 19.5554 1.17068 19.2834 1.32305C19.0113 1.47541 18.7738 1.68239 18.5856 1.93097L11.9188 11.0528" stroke="#171E36" stroke-width="1.66435" stroke-linecap="round" stroke-linejoin="round"/>
  </g>
</svg>