<svg width="24" height="25" viewBox="0 0 24 25" fill="none" xmlns="http://www.w3.org/2000/svg">
  <path fill-rule="evenodd" clip-rule="evenodd" d="M1.2508 7.99854C1.2508 9.24118 2.25816 10.2485 3.5008 10.2485C4.74344 10.2485 5.7508 9.24118 5.7508 7.99854C5.7508 6.75589 4.74344 5.74854 3.5008 5.74854C2.25816 5.74854 1.2508 6.75589 1.2508 7.99854ZM18.709 16.4985C18.709 17.7412 19.7163 18.7485 20.959 18.7485C22.2016 18.7485 23.209 17.7412 23.209 16.4985C23.209 15.2559 22.2016 14.2485 20.959 14.2485C19.7163 14.2485 18.709 15.2559 18.709 16.4985Z" stroke="#171E36" stroke-width="1.5"/>
  <path fill-rule="evenodd" clip-rule="evenodd" d="M21.001 13.7485V10.9115C21.001 9.87374 20.5887 8.87846 19.8549 8.14463C19.1211 7.4108 18.1258 6.99854 17.088 6.99854H16.131C15.6188 6.99918 15.1119 7.10108 14.6393 7.29836C14.1667 7.49564 13.7378 7.78442 13.3772 8.14808C13.0166 8.51174 12.7314 8.94311 12.5382 9.41737C12.3449 9.89163 12.2473 10.3994 12.251 10.9115V16.5855C12.2436 17.6268 11.8244 18.6227 11.0851 19.3559C10.3457 20.0891 9.34623 20.4999 8.30498 20.4985H7.35098C6.84052 20.4973 6.33538 20.3947 5.86485 20.1968C5.39431 19.9989 4.96773 19.7096 4.60982 19.3456C4.2519 18.9817 3.96977 18.5503 3.77978 18.0765C3.58978 17.6027 3.4957 17.0959 3.50298 16.5855V10.7485" stroke="#171E36" stroke-width="1.5" stroke-linecap="round" stroke-linejoin="round"/>
</svg>
