<svg width="24" height="25" viewBox="0 0 24 25" fill="none" xmlns="http://www.w3.org/2000/svg">
<path d="M16.9929 6.4972C17.0026 6.10518 17.1658 5.73249 17.4476 5.45871C17.7294 5.18493 18.1075 5.03175 18.5011 5.03187C18.6987 5.03186 18.8944 5.0708 19.0769 5.14643C19.2593 5.22206 19.425 5.33289 19.5643 5.47255C19.7036 5.61221 19.8138 5.77794 19.8886 5.96019C19.9633 6.14245 20.0012 6.33764 20 6.53453V17.8745C20.0017 18.5467 19.8702 19.2127 19.613 19.8341C19.3558 20.4556 18.9779 21.0203 18.5011 21.4959C17.5368 22.4562 16.2298 22.9965 14.8663 22.9985H11.9342C10.9427 22.9997 9.96623 22.7566 9.09182 22.2909C8.2174 21.8251 7.47212 21.1513 6.92231 20.3292L3.25944 14.8505C3.09027 14.5976 3 14.3005 3 13.9965C3 13.6926 3.09027 13.3955 3.25944 13.1425C3.37855 12.9656 3.53319 12.8153 3.7136 12.701C3.89401 12.5867 4.09625 12.5109 4.30756 12.4784C4.51886 12.446 4.73462 12.4576 4.9412 12.5124C5.14779 12.5673 5.3407 12.6643 5.50775 12.7972L7.96215 14.7479V5.03187C7.96215 4.63581 8.12007 4.25598 8.40116 3.97592C8.68226 3.69587 9.0635 3.53853 9.46103 3.53853C9.85942 3.53853 10.2416 3.69556 10.5242 3.97535C10.8068 4.25514 10.9668 4.63496 10.9693 5.03187V3.5012C10.9691 3.10905 11.1229 2.7324 11.3977 2.45164C11.6725 2.17088 12.0466 2.00828 12.44 1.99854C12.84 1.99854 13.2237 2.15685 13.5065 2.43866C13.7894 2.72046 13.9483 3.10267 13.9483 3.5012V5.03187C13.9483 4.63581 14.1062 4.25598 14.3873 3.97592C14.6684 3.69587 15.0496 3.53853 15.4471 3.53853C15.6476 3.53357 15.8469 3.56846 16.0337 3.64116C16.2204 3.71387 16.3907 3.82293 16.5346 3.96197C16.6785 4.10101 16.7932 4.26725 16.8719 4.45095C16.9505 4.63465 16.9917 4.83214 16.9929 5.03187V6.4972ZM16.9929 6.4972L16.9929 10.9959M10.9693 4.99453V10.9959M13.9857 4.99453V10.9959" stroke="#171E36" stroke-width="1.5" stroke-linecap="round" stroke-linejoin="round"/>
</svg>
